<svg width="59" height="28" viewBox="0 0 59 28" fill="none" xmlns="http://www.w3.org/2000/svg">
<path fill-rule="evenodd" clip-rule="evenodd" d="M41.1957 0.383518C40.9749 0.153564 40.6722 0.0235739 40.3534 0.0235739H32.8003L28.2054 4.14857C20.6079 5.8507 15.1569 10.8575 14.8848 11.1128L14.6468 11.3339C14.2249 11.5378 12.8928 12.0252 8.82107 12.8257C3.04581 13.9628 1.94413 15.8027 1.73602 16.5142C1.27499 16.8584 0.528347 17.6792 0.410057 18.6448C0.314969 19.4149 0.0996582 19.7298 0.0996582 19.729L0 19.8574V25.2928L0.0112489 25.3919C0.324285 26.8353 1.82021 27.599 4.33715 27.599C5.13987 27.599 5.74203 27.5171 5.71866 27.5171C5.73984 27.5159 5.86199 27.5135 6.07447 27.5093L6.07499 27.5093C6.21335 27.5066 6.38995 27.5031 6.60187 27.4988C6.54686 27.3467 6.49676 27.193 6.45353 27.0355C6.4117 26.8836 6.37338 26.7307 6.34385 26.5741C6.27284 26.2053 6.23294 25.8259 6.23294 25.4364C6.23294 22.0961 8.95043 19.3785 12.2906 19.3785C15.6309 19.3785 18.3485 22.0961 18.3485 25.4364C18.3485 25.7385 18.319 26.0315 18.2766 26.3219C18.2534 26.4793 18.2266 26.6358 18.191 26.7887C18.1547 26.9471 18.1165 27.1037 18.0682 27.2575C25.6327 27.0954 35.2583 26.8815 42.7131 26.6941C42.6802 26.5412 42.6593 26.3864 42.6384 26.2298C42.6175 26.0751 42.6055 25.9204 42.5975 25.764C42.5956 25.7277 42.5932 25.6916 42.5908 25.6555L42.5908 25.655L42.5908 25.6549C42.5859 25.5826 42.5811 25.5103 42.5811 25.4364C42.5811 22.0961 45.2988 19.3785 48.6388 19.3785C51.9318 19.3785 54.6148 22.0214 54.6895 25.298C54.6895 25.3207 54.6913 25.3435 54.6931 25.3664V25.3665C54.6949 25.3896 54.6967 25.413 54.6967 25.4364C54.6967 25.5247 54.6905 25.6114 54.6843 25.6985L54.6815 25.7391L54.6784 25.7849C54.6693 25.9505 54.6529 26.1152 54.6311 26.2772C56.0545 26.0424 57.1249 25.2924 57.7446 24.0793C58.8048 22.0051 58.2644 19.1966 57.8838 18.6002C57.6796 18.2794 57.5776 17.0311 57.4872 15.9235V15.9234L57.4855 15.9035L57.4837 15.881C57.4022 14.8986 57.3104 13.7901 57.1323 12.8327C57.0076 12.1579 56.7336 11.2594 55.8072 11.2594C55.7144 11.2594 55.6214 11.2686 55.5296 11.278L55.4967 11.2813C55.4492 11.2862 55.3972 11.2916 55.3212 11.293C55.3193 11.293 55.2892 11.2638 55.2511 11.1529C54.979 10.3737 53.8377 9.40458 52.3743 8.21923C52.0138 7.92834 51.5823 7.57804 51.3985 7.39736C51.466 6.93053 51.456 6.35718 51.131 5.96207C50.98 5.77769 50.696 5.55746 50.2063 5.55746C50.1344 5.55746 50.0579 5.56185 49.8878 5.57697C49.5345 5.57697 48.8265 5.43179 47.8463 5.22913L47.8399 5.22783C47.1736 5.09108 46.3563 4.92337 45.385 4.74772L41.1957 0.383518ZM23.0187 12.054C23.0506 12.0484 23.0824 12.0427 23.118 12.0413C24.8411 11.977 25.1337 13.5362 25.1337 13.5362L33.569 13.1914V6.36222C31.579 6.4705 29.9776 6.65194 29.0997 6.93581C27.1705 7.56032 24.9271 8.80641 22.9476 10.0613V12.0647C22.9723 12.0623 22.9955 12.0581 23.0187 12.054ZM45.5173 11.4222C45.2229 11.9337 44.6868 12.2585 44.0974 12.2831L37.1605 12.5664L36.5389 6.3658C39.4056 6.45301 41.8007 6.5607 43.014 6.62625C43.5753 6.6561 44.0816 6.97977 44.3432 7.47727L45.5471 9.76167C45.8228 10.2843 45.8111 10.9118 45.5173 11.4222Z" fill="white"/>
</svg>
